<?xml version="1.0" standalone="no"?>
<!DOCTYPE svg PUBLIC "-//W3C//DTD SVG 20010904//EN"
 "http://www.w3.org/TR/2001/REC-SVG-20010904/DTD/svg10.dtd">
<svg version="1.0" xmlns="http://www.w3.org/2000/svg"
 width="700.000000pt" height="700.000000pt" viewBox="0 0 700.000000 700.000000"
 preserveAspectRatio="xMidYMid meet">
<metadata>
Created by potrace 1.11, written by Peter Selinger 2001-2013
</metadata>
<g transform="translate(0.000000,700.000000) scale(0.100000,-0.100000)"
fill="#000000" stroke="none">
<path d="M896 6942 c-6 -12 -95 -325 -100 -354 -28 -169 -37 -324 -23 -433 8
-61 34 -161 50 -195 39 -78 12 -148 -123 -329 -111 -149 -151 -211 -197 -304
-40 -81 -91 -215 -98 -260 -3 -18 -8 -39 -10 -47 -2 -8 -7 -30 -10 -49 -3 -19
-8 -37 -10 -40 -5 -9 -18 -223 -19 -301 0 -133 16 -309 40 -440 99 -532 354
-909 767 -1139 327 -182 684 -306 1082 -376 77 -13 156 -27 175 -30 19 -4 60
-11 90 -16 125 -20 213 -60 195 -89 -4 -6 -27 -20 -51 -30 -63 -28 -123 -94
-230 -257 -95 -144 -166 -233 -188 -233 -28 -1 -39 -21 -45 -81 -5 -58 -9 -65
-40 -86 -70 -47 -151 -14 -151 62 0 19 -4 35 -9 35 -5 0 -24 -25 -42 -56 -35
-63 -83 -113 -108 -115 -56 -4 -70 5 -118 79 l-34 55 -47 -51 c-26 -28 -59
-54 -75 -57 -38 -10 -90 2 -121 26 -52 41 -24 79 71 100 29 7 53 16 53 20 0
18 -137 44 -180 34 -23 -5 -31 -13 -36 -40 -3 -19 -14 -41 -24 -50 -49 -45
-142 -17 -154 47 -9 46 -42 66 -127 78 -80 12 -100 22 -93 51 2 10 6 29 9 41
6 29 -19 55 -54 56 -47 1 -78 28 -90 77 -11 44 -41 75 -72 75 -21 0 -45 28
-53 65 -13 53 -149 170 -249 213 -16 7 -47 15 -69 17 -54 7 -75 20 -93 55 -9
17 -19 30 -23 30 -4 0 -24 4 -44 9 -27 6 -42 5 -55 -4 -17 -13 -17 -15 7 -40
14 -15 75 -69 136 -121 197 -164 296 -277 459 -524 174 -263 318 -391 518
-464 78 -28 178 -52 257 -61 30 -3 73 -9 95 -12 22 -3 175 -7 340 -8 165 -2
306 -4 314 -4 11 -1 12 -67 8 -393 -3 -216 -8 -406 -11 -423 -20 -91 -45 -126
-176 -235 -129 -108 -164 -145 -157 -163 15 -39 226 -27 422 23 220 56 328
166 359 365 4 22 11 67 16 100 11 71 19 236 25 555 7 366 18 468 60 555 13 28
33 56 44 62 18 11 23 10 36 -11 23 -35 29 -180 29 -691 0 -714 -11 -814 -109
-1000 -66 -126 -70 -138 -48 -160 57 -58 376 74 531 219 41 38 57 90 77 248 2
18 6 49 9 68 3 19 8 69 12 110 4 41 8 89 10 105 1 17 5 66 8 110 4 44 9 109
11 145 3 36 8 108 10 160 3 52 7 124 10 160 3 36 7 111 10 166 4 56 8 115 10
130 3 26 15 145 20 199 16 177 81 252 119 137 20 -61 25 -119 31 -397 14 -665
17 -731 30 -885 8 -95 10 -113 20 -185 5 -27 8 -51 7 -52 -3 -7 48 -105 77
-148 142 -206 437 -364 550 -293 40 25 23 83 -56 194 -70 97 -95 171 -108 319
-4 39 -9 86 -11 105 -2 19 -6 98 -9 175 -3 77 -7 194 -10 260 -7 157 -6 624 0
695 14 145 22 170 55 170 30 0 76 -46 99 -99 41 -97 59 -239 66 -531 8 -322
15 -544 19 -580 3 -19 7 -63 11 -98 9 -93 23 -163 39 -186 88 -132 370 -245
596 -241 152 3 160 4 160 18 0 16 -68 82 -215 206 -60 51 -115 99 -121 107 -7
9 -11 145 -12 431 -1 404 -7 658 -18 773 -8 91 -15 144 -19 160 -2 8 -7 31
-10 50 -21 125 -91 279 -167 367 -29 34 -86 98 -126 143 -40 44 -70 85 -67 90
8 12 176 45 390 75 20 3 69 10 135 21 211 34 419 88 615 162 484 181 831 491
961 857 13 35 73 300 78 344 3 29 8 56 10 60 2 3 7 34 11 68 3 34 8 72 11 85
23 119 23 609 -1 698 -2 8 -7 31 -10 50 -3 19 -8 42 -10 50 -2 8 -6 26 -9 40
-9 45 -53 174 -84 241 -29 64 -124 219 -153 249 -8 8 -38 44 -68 80 -30 36
-60 70 -66 75 -32 28 -90 132 -103 185 -3 8 -6 130 -7 270 -1 140 -5 278 -9
305 -15 118 -19 143 -32 200 -12 49 -73 244 -78 252 -1 1 -31 -2 -66 -7 -36
-5 -85 -12 -110 -15 -240 -29 -590 -146 -1082 -361 -58 -25 -98 -27 -228 -9
-19 3 -66 7 -105 11 -38 3 -86 7 -105 9 -19 2 -71 7 -115 10 -44 4 -93 9 -110
11 -16 2 -72 6 -124 10 -51 3 -103 8 -115 11 -37 9 -578 12 -641 3 -33 -5 -87
-11 -120 -14 -33 -4 -73 -8 -90 -11 -16 -2 -59 -7 -95 -10 -36 -4 -72 -9 -80
-10 -20 -4 -153 -23 -210 -30 -25 -3 -72 -10 -105 -15 -33 -5 -82 -11 -110
-15 -27 -3 -62 -8 -76 -11 -22 -4 -195 62 -364 141 -208 96 -605 233 -765 264
-54 11 -78 14 -195 26 -33 4 -70 8 -82 10 -13 2 -24 1 -27 -3z m3719 -2026
c589 -20 665 -32 846 -137 481 -278 646 -843 388 -1327 -184 -346 -586 -604
-994 -637 -43 -4 -87 -8 -97 -10 -89 -18 -1446 -32 -1818 -20 -149 5 -332 14
-380 20 -19 2 -66 6 -105 9 -38 3 -79 8 -90 10 -11 2 -42 7 -70 10 -174 23
-397 87 -517 147 -296 148 -520 389 -606 649 -37 112 -49 191 -47 315 2 134
14 204 56 318 35 95 50 124 105 208 113 172 272 297 474 372 147 55 205 61
640 73 129 3 236 7 238 8 5 5 1812 -2 1977 -8z"/>
<path d="M4895 4609 c-125 -17 -229 -65 -306 -142 -153 -153 -169 -434 -32
-563 53 -50 109 -76 243 -114 190 -54 232 -82 232 -152 -1 -190 -294 -235
-570 -87 -41 21 -77 39 -81 39 -4 0 -13 -35 -19 -77 -6 -43 -14 -88 -16 -100
-2 -11 -8 -41 -11 -66 l-7 -45 54 -20 c176 -65 368 -89 533 -67 196 27 354
152 411 325 12 37 18 86 18 150 0 81 -3 103 -25 150 -52 111 -138 167 -344
225 -145 41 -177 55 -199 87 -22 30 -20 86 3 124 32 53 100 79 212 81 108 2
188 -13 293 -57 39 -17 74 -30 77 -30 4 0 10 21 15 48 4 26 8 49 9 52 2 8 18
115 17 117 0 2 3 16 8 32 8 28 7 29 -48 44 -162 44 -346 62 -467 46z"/>
<path d="M2039 4578 c-1 -22 -58 -356 -83 -488 -3 -14 -17 -92 -31 -175 -14
-82 -34 -199 -45 -260 -11 -60 -27 -153 -36 -205 -9 -52 -17 -97 -19 -100 -2
-3 -6 -31 -10 -62 l-7 -56 156 -1 c154 -1 156 -1 161 22 5 23 20 112 31 181 5
37 7 48 18 106 3 14 8 43 11 65 4 22 8 45 9 50 2 6 6 30 10 55 4 25 9 54 11
65 2 11 4 23 4 28 1 4 105 7 231 7 l230 0 0 -22 c0 -13 -5 -41 -10 -63 -5 -22
-11 -53 -14 -70 -3 -16 -17 -100 -32 -185 -14 -85 -29 -174 -31 -197 l-5 -41
155 0 156 1 7 41 c3 23 8 48 9 56 1 8 6 35 10 60 4 25 9 54 11 65 7 33 12 61
49 270 19 110 37 211 39 225 3 14 16 93 31 175 14 83 38 221 53 308 l28 157
-157 0 -157 0 -6 -27 c-3 -16 -10 -57 -16 -93 -6 -36 -13 -76 -16 -90 -2 -14
-11 -68 -20 -120 -8 -52 -20 -116 -25 -141 l-10 -46 -230 0 -230 1 6 40 c6 38
50 290 61 346 2 14 7 41 10 60 3 19 7 43 10 53 5 16 -7 17 -155 17 -122 0
-161 -3 -162 -12z"/>
<path d="M3635 4269 c-52 -7 -224 -39 -225 -43 -4 -11 -46 -242 -45 -244 1 -1
24 7 51 19 102 44 150 53 284 53 160 1 209 -36 201 -149 -1 -19 -8 -20 -124
-21 -197 -1 -261 -12 -362 -59 -148 -70 -217 -186 -210 -351 7 -171 106 -266
277 -265 35 0 74 3 88 6 52 10 134 60 187 112 43 42 54 49 50 31 -3 -13 -9
-46 -13 -74 l-6 -51 145 -1 145 -2 7 43 c4 23 9 51 11 62 2 11 8 45 13 75 6
30 24 136 41 235 17 99 33 194 36 210 3 17 6 62 6 101 1 152 -65 250 -198 293
-78 25 -244 34 -359 20z m221 -616 c-24 -138 -110 -225 -222 -227 -86 -1 -124
32 -129 110 -5 69 42 126 118 144 17 5 79 8 136 9 l103 1 -6 -37z"/>
</g>
</svg>
